PathFileType	4	(X/Y/Z)	c:\Git\powerlifing_model_clean\simulations\HC835B\Session1\HC835B_OGR_0002\marker_experimental.trc
DataRate	CameraRate	NumFrames	NumMarkers	Units	OrigDataRate	OrigDataStartFrame	OrigNumFrames
240.000000	240.000000	4	38	mm	240.000000	136	218
Frame#	Time	RPSI			LPSI			RASI			LASI			RTH1			RTH2			RTH3			RTH4			RSK1			RSK2			RSK3			RSK4			RCAL1			RCAL2			RCAL3			RST			RPT			RTN			RFMB			RSMB			RVMB			RFMH			RSMH			RVMH			RPM			LTH1			LTH2			LTH3			LTH4			LSK1			LSK2			LSK3			LSK4			LCAL1			LCAL2			LCAL3			LFMH			LVMH			
		X1	Y1	Z1	X2	Y2	Z2	X3	Y3	Z3	X4	Y4	Z4	X5	Y5	Z5	X6	Y6	Z6	X7	Y7	Z7	X8	Y8	Z8	X9	Y9	Z9	X10	Y10	Z10	X11	Y11	Z11	X12	Y12	Z12	X13	Y13	Z13	X14	Y14	Z14	X15	Y15	Z15	X16	Y16	Z16	X17	Y17	Z17	X18	Y18	Z18	X19	Y19	Z19	X20	Y20	Z20	X21	Y21	Z21	X22	Y22	Z22	X23	Y23	Z23	X24	Y24	Z24	X25	Y25	Z25	X26	Y26	Z26	X27	Y27	Z27	X28	Y28	Z28	X29	Y29	Z29	X30	Y30	Z30	X31	Y31	Z31	X32	Y32	Z32	X33	Y33	Z33	X34	Y34	Z34	X35	Y35	Z35	X36	Y36	Z36	X37	Y37	Z37	X38	Y38	Z38	

137	0.5666666666666667	523.5316772460939	1077.490844726563	-1539.601440429688	418.8667602539064	1086.75634765625	-1537.590576171875	584.4119262695314	993.5955200195315	-1736.555786132813	331.3480224609376	1007.466796875	-1730.357177734375	655.6351318359376	729.8168945312501	-1691.624633789063	641.5286254882814	722.7188110351564	-1750.439331054688	646.2838134765626	650.5916137695314	-1720.107666015625	622.6409301757814	642.7701416015626	-1773.151489257813	620.1383056640626	511.5410461425782	-1445.547729492188	625.2173461914064	450.2090148925782	-1439.868774414063	619.6596679687501	487.7246093750001	-1392.07080078125	611.7361450195314	428.3320617675782	-1386.87158203125	563.2203369140626	525.7830200195314	-1257.689697265625	525.3055419921876	521.1618652343751	-1226.056640625	589.0302124023439	530.1122436523439	-1216.332397460938	520.5175170898439	448.5364074707032	-1233.223266601563	617.6742553710939	471.800994873047	-1214.475463867188	541.5429077148439	394.0662841796876	-1241.727783203125	541.5807495117189	366.0955200195313	-1218.31298828125	595.3676147460939	357.0371093750001	-1233.27490234375	626.7083740234376	432.765106201172	-1181.024047851563	537.0830688476564	316.7557983398438	-1178.209350585938	593.5496826171876	306.0093383789063	-1184.936279296875	647.0042724609376	358.7695922851563	-1155.666625976563	587.7667236328126	251.1592559814454	-1172.593017578125	269.4854125976563	748.8646240234376	-1699.306396484375	263.7193298339844	751.1784057617189	-1759.725708007813	275.6865539550782	673.1804809570314	-1739.867431640625	285.0544738769532	678.1904907226564	-1801.326782226563	344.9256896972657	271.3456726074219	-1635.359130859375	347.3488159179688	235.8285064697266	-1676.117919921875	355.0317382812501	215.5292510986329	-1631.613891601563	372.4534912109376	183.9013214111328	-1675.792724609375	428.3804626464845	92.66843414306642	-1518.27587890625	396.1189575195314	56.75889587402345	-1515.380126953125	454.3244628906251	52.78175735473634	-1518.38134765625	469.5605468750001	48.75355529785158	-1747.09375	354.7275390625001	29.83144187927247	-1703.4921875	
138	0.5708333333333333	522.8508300781251	1078.10888671875	-1551.800903320313	418.6211853027345	1087.4013671875	-1550.020141601563	585.5844726562501	996.2215576171877	-1749.021606445313	332.2558593750001	1008.193969726563	-1742.705932617188	656.3926391601564	731.4606933593751	-1707.792114257813	642.8242187500001	725.4248657226564	-1766.82470703125	647.5223388671876	652.7936401367189	-1737.71923828125	624.3081054687501	645.8424682617189	-1791.107299804688	620.8051757812501	510.1506958007814	-1466.371948242188	625.5372924804689	448.6484680175782	-1461.405517578125	620.0034179687501	485.6243286132814	-1413.177612304688	611.8188476562501	426.2377014160157	-1408.708251953125	563.3819580078126	522.2888793945314	-1277.693603515625	525.5203857421876	517.1902465820314	-1246.149047851563	588.8483276367189	525.4363403320314	-1236.236083984375	520.2431030273439	445.1162109375001	-1254.372314453125	617.6761474609376	467.2545776367189	-1235.601928710938	541.0016479492189	389.9761047363282	-1264.140014648438	541.1607055664064	362.1740112304688	-1241.712524414063	594.8924560546876	352.9438171386719	-1256.636352539063	626.5847778320314	427.5153198242189	-1202.932006835938	536.4368896484376	311.8497619628907	-1202.234741210938	592.8885498046876	301.0899047851563	-1209.264770507813	646.5715942382814	352.9410095214844	-1179.096801757813	586.9346313476564	246.0378723144532	-1198.093017578125	269.4405517578126	748.8690185546876	-1708.843139648438	264.1638793945313	750.2949218750001	-1769.286865234375	275.3162231445313	672.6013793945314	-1747.996826171875	285.4990234375001	676.4713745117189	-1809.614990234375	345.1259155273438	271.2881469726563	-1637.734619140625	346.5600585937501	235.647445678711	-1677.625610351563	355.1277465820313	215.3691558837891	-1633.310913085938	372.5809631347657	183.6238555908203	-1677.11328125	428.5079345703126	93.39566802978517	-1518.671875	396.2707824707032	57.51962280273439	-1515.599853515625	454.4921264648439	53.51896286010744	-1518.648681640625	469.6316528320314	48.785213470459	-1747.216796875	354.7456359863282	29.81184577941895	-1703.493286132813	
139	0.575	522.3380126953126	1079.17919921875	-1564.025024414063	418.3853149414064	1088.302978515625	-1562.537231445313	586.5906372070314	999.1617431640627	-1761.472412109375	333.1148986816407	1008.911437988281	-1755.445190429688	657.2039794921876	733.5679321289064	-1723.876220703125	644.0645141601564	728.5140380859376	-1783.141723632813	648.6711425781251	655.3660888671876	-1755.247680664063	625.9194335937501	649.3317871093751	-1808.911743164063	621.4358520507814	508.6697387695314	-1487.02197265625	625.8059082031251	447.0757446289064	-1482.899047851563	620.3791503906251	483.4091186523439	-1434.175903320313	611.7961425781251	424.0195922851564	-1430.531616210938	563.4704589843751	518.4116210937501	-1297.647583007813	525.6296386718751	512.7599487304689	-1266.188232421875	589.0695190429689	520.6732177734376	-1256.052612304688	520.4526977539064	440.2405700683595	-1276.462768554688	617.5930786132814	462.306365966797	-1256.727661132813	540.6251831054689	385.9002380371095	-1286.80712890625	540.5104370117189	357.5278320312501	-1265.197265625	594.3476562500001	348.5469970703126	-1280.072265625	626.3422851562501	421.8413085937501	-1224.868774414063	535.8448486328126	306.4951782226563	-1226.705688476563	592.2486572265626	295.7139892578126	-1233.896606445313	646.1020507812501	346.7767028808594	-1202.672119140625	585.9351196289064	240.4190673828126	-1223.83349609375	269.3927917480469	748.9904174804689	-1718.252563476563	264.5248718261719	749.5283203125001	-1778.7900390625	275.2653198242188	672.0859375000001	-1756.38134765625	286.0356445312501	675.2308959960939	-1817.734497070313	345.1850280761719	271.6089172363282	-1639.925537109375	346.5365905761719	235.8544464111329	-1679.351928710938	355.2056274414063	215.9205322265626	-1635.088256835938	372.5975341796876	183.4581909179688	-1678.597045898438	428.5300903320314	94.22234344482423	-1519.147094726563	396.3522949218751	58.28036117553712	-1515.792602539063	454.6251525878907	54.50747680664064	-1518.777954101563	469.6638488769532	48.76449203491212	-1747.375732421875	354.8190612792969	29.80627441406251	-1703.5263671875	
140	0.5791666666666666	521.8690185546876	1080.58154296875	-1576.355346679688	418.3137512207032	1089.593017578125	-1575.043823242188	587.2803955078126	1002.064575195313	-1773.89990234375	333.5649414062501	1009.887756347656	-1768.2958984375	657.8665771484376	735.9155883789064	-1739.886108398438	645.2767944335939	731.9023437500001	-1799.335815429688	649.7590942382814	658.3436279296876	-1772.670043945313	627.4114990234376	653.1473999023439	-1826.580322265625	621.9837646484376	507.0853576660157	-1507.517700195313	626.0170898437501	445.4584960937501	-1504.343994140625	620.6509399414064	481.138641357422	-1455.051147460938	611.7255249023439	421.6435852050782	-1452.19921875	563.4810791015626	514.0987548828126	-1317.510864257813	525.5765380859376	507.9331054687501	-1286.1669921875	589.0001220703126	515.3308715820314	-1275.84375	520.0225219726564	435.9383239746095	-1297.735595703125	617.5115356445314	457.0053100585939	-1277.883178710938	540.2675781250001	381.4730529785157	-1309.6181640625	539.7253417968751	353.1844177246094	-1288.314575195313	593.8990478515626	343.8766784667969	-1303.771240234375	626.0220336914064	415.7434692382814	-1246.8408203125	535.9757080078126	300.9516601562501	-1252.068603515625	591.4701538085939	290.0241088867188	-1258.633056640625	645.5519409179689	340.1743469238282	-1226.326416015625	584.9569702148439	234.5586242675782	-1249.976440429688	269.4278564453126	749.3826293945314	-1727.550903320313	264.9085693359376	749.0492553710939	-1788.061767578125	275.3495483398438	672.0313720703126	-1764.42138671875	286.3961486816407	674.2197875976564	-1825.452514648438	345.1019287109376	272.0207214355469	-1642.244506835938	346.4337463378907	235.8360443115235	-1681.260375976563	355.1563720703126	216.2612609863282	-1636.655395507813	372.5597839355469	183.5590515136719	-1679.8212890625	428.3186950683595	95.11508941650392	-1519.431030273438	396.2821655273439	59.0721893310547	-1516.01318359375	454.6123962402345	55.36921310424806	-1519.246704101563	469.6325073242189	48.64904785156251	-1747.423706054688	354.8622741699219	29.81088256835938	-1703.531372070313	
